<?xml version="1.0" encoding="UTF-8" standalone="no"?>
<svg
   viewBox="0 0 512 512"
   version="1.1"
   id="svg3"
   sodipodi:docname="partly-cloudy.svg"
   xml:space="preserve"
   inkscape:version="1.4.3 (0d15f75042, 2025-12-25)"
   xmlns:inkscape="http://www.inkscape.org/namespaces/inkscape"
   xmlns:sodipodi="http://sodipodi.sourceforge.net/DTD/sodipodi-0.dtd"
   xmlns:xlink="http://www.w3.org/1999/xlink"
   xmlns="http://www.w3.org/2000/svg"
   xmlns:svg="http://www.w3.org/2000/svg"><sodipodi:namedview
     id="namedview3"
     pagecolor="#ffffff"
     bordercolor="#000000"
     borderopacity="0.25"
     inkscape:showpageshadow="2"
     inkscape:pageopacity="0.0"
     inkscape:pagecheckerboard="0"
     inkscape:deskcolor="#d1d1d1"
     inkscape:zoom="1.2927475"
     inkscape:cx="197.64107"
     inkscape:cy="275.76924"
     inkscape:window-width="1920"
     inkscape:window-height="1052"
     inkscape:window-x="0"
     inkscape:window-y="0"
     inkscape:window-maximized="1"
     inkscape:current-layer="svg3" /><defs
     id="defs3"><linearGradient
       id="a"
       x1="99.45"
       y1="30.68"
       x2="232.64"
       y2="261.37"
       gradientUnits="userSpaceOnUse"><stop
         offset="0"
         stop-color="#f3f7fe"
         id="stop1" /><stop
         offset="0.45"
         stop-color="#f3f7fe"
         id="stop2" /><stop
         offset="1"
         stop-color="#deeafb"
         id="stop3" /></linearGradient><symbol
       id="b"
       viewBox="0 0 350 222"><path
         d="M291,107c-.85,0-1.68.09-2.53.13A83.9,83.9,0,0,0,135.6,42.92,55.91,55.91,0,0,0,51,91a56.56,56.56,0,0,0,.8,9.08A60,60,0,0,0,63,219c1.35,0,2.67-.11,4-.2v.2H291a56,56,0,0,0,0-112Z"
         stroke="#e6effc"
         stroke-miterlimit="10"
         stroke-width="6"
         fill="url(#a)"
         id="path3" /></symbol><linearGradient
       id="a-5"
       x1="149.99"
       y1="119.24"
       x2="234.01"
       y2="264.76"
       gradientUnits="userSpaceOnUse"><stop
         offset="0"
         stop-color="#fbbf24"
         id="stop1-3" /><stop
         offset="0.45"
         stop-color="#fbbf24"
         id="stop2-5" /><stop
         offset="1"
         stop-color="#f59e0b"
         id="stop3-6" /></linearGradient><symbol
       id="b-2"
       viewBox="0 0 384 384"><circle
         cx="192"
         cy="192"
         r="84"
         stroke="#f8af18"
         stroke-miterlimit="10"
         stroke-width="6"
         fill="url(#a)"
         id="circle3"
         style="fill:url(#a-5)" /><path
         d="M192,61.66V12m0,360V322.34M284.17,99.83l35.11-35.11M64.72,319.28l35.11-35.11m0-184.34L64.72,64.72M319.28,319.28l-35.11-35.11M61.66,192H12m360,0H322.34"
         fill="none"
         stroke="#fbbf24"
         stroke-linecap="round"
         stroke-miterlimit="10"
         stroke-width="24"
         id="path3-9" /></symbol></defs><g
     id="g3"
     transform="matrix(0.99999976,0,0,0.99999864,10.501635,36.496498)"><use
       width="384"
       height="384"
       transform="matrix(0.61407671,0,0,0.61407671,59.995379,72.0076)"
       xlink:href="#b-2"
       id="use3-1" /><use
       width="350"
       height="222"
       transform="translate(81,145)"
       xlink:href="#b"
       id="use3" /></g></svg>
